<svg id="Layer_1" data-name="Layer 1" xmlns="http://www.w3.org/2000/svg" viewBox="0 0 130.5 91.5">
  <title>event1-video-button</title>
<style>
    g { display: none; }
    g:target { display: inline; }
</style>
<g id="normal">
  <path d="M745.3,352.8a16.6,16.6,0,0,0-11.6-11.6c-10.2-2.7-51-2.7-51-2.7s-40.8,0-50.9,2.7a16.4,16.4,0,0,0-11.6,11.6c-2.7,10.2-2.7,31.4-2.7,31.4s0,21.3,2.7,31.5a16.3,16.3,0,0,0,11.6,11.5c10.1,2.8,50.9,2.8,50.9,2.8s40.8,0,51-2.8a16.4,16.4,0,0,0,11.6-11.5c2.7-10.2,2.7-31.5,2.7-31.5s0-21.2-2.7-31.4" transform="translate(-617.5 -338.5)" fill="#ce412d"/>
  <path d="M698.4,382.5l-22-13.9a1.9,1.9,0,0,0-2.9,1.6V398a1.9,1.9,0,0,0,2.9,1.6l22-13.9A1.9,1.9,0,0,0,698.4,382.5Z" transform="translate(-617.5 -338.5)" fill="#fff"/>
</g>
<g id="hover">
  <path id="hover" d="M745.3,352.8a16.6,16.6,0,0,0-11.6-11.6c-10.2-2.7-51-2.7-51-2.7s-40.8,0-50.9,2.7a16.4,16.4,0,0,0-11.6,11.6c-2.7,10.2-2.7,31.4-2.7,31.4s0,21.3,2.7,31.5a16.3,16.3,0,0,0,11.6,11.5c10.1,2.8,50.9,2.8,50.9,2.8s40.8,0,51-2.8a16.4,16.4,0,0,0,11.6-11.5c2.7-10.2,2.7-31.5,2.7-31.5s0-21.2-2.7-31.4" transform="translate(-617.5 -338.5)" fill="#ba3629"/>
  <path d="M698.4,382.5l-22-13.9a1.9,1.9,0,0,0-2.9,1.6V398a1.9,1.9,0,0,0,2.9,1.6l22-13.9A1.9,1.9,0,0,0,698.4,382.5Z" transform="translate(-617.5 -338.5)" fill="#fff"/>
</g>
</svg>
